<?xml version="1.0" encoding="UTF-8" standalone="no"?>
<!-- Created with Inkscape (http://www.inkscape.org/) -->
<svg
   xmlns:dc="http://purl.org/dc/elements/1.1/"
   xmlns:cc="http://web.resource.org/cc/"
   xmlns:rdf="http://www.w3.org/1999/02/22-rdf-syntax-ns#"
   xmlns:svg="http://www.w3.org/2000/svg"
   xmlns="http://www.w3.org/2000/svg"
   xmlns:sodipodi="http://sodipodi.sourceforge.net/DTD/sodipodi-0.dtd"
   xmlns:inkscape="http://www.inkscape.org/namespaces/inkscape"
   height="878.745"
   id="svg2"
   inkscape:version="0.45.1"
   sodipodi:docbase="/Users/johnolsen/Desktop/openclipart-0.20-pre/recovered-zerobyte-files/unsorted"
   sodipodi:docname="svg_of_the_greek_lette_01r.svg"
   sodipodi:version="0.32"
   width="599.72968"
   inkscape:output_extension="org.inkscape.output.svg.inkscape"
   version="1.0"
   inkscape:export-filename="/Users/johnolsen/Desktop/openclipart-0.20-pre/recovered-zerobyte-files/unsorted/svg_of_the_greek_lette_01r.png"
   inkscape:export-xdpi="25.413172"
   inkscape:export-ydpi="25.413172">
  <metadata
     id="metadata3">
    <rdf:RDF>
      <cc:Work
         rdf:about="">
        <dc:title>SVG of the greek letter lambda</dc:title>
        <dc:description />
        <dc:subject>
          <rdf:Bag>
            <rdf:li>letter</rdf:li>
            <rdf:li>lamba</rdf:li>
            <rdf:li>greek</rdf:li>
          </rdf:Bag>
        </dc:subject>
        <dc:publisher>
          <cc:Agent
             rdf:about="http://www.openclipart.org/">
            <dc:title>Open Clip Art Library</dc:title>
          </cc:Agent>
        </dc:publisher>
        <dc:creator>
          <cc:Agent>
            <dc:title>Mark Kowarsky</dc:title>
          </cc:Agent>
        </dc:creator>
        <dc:rights>
          <cc:Agent>
            <dc:title>Mark Kowarsky</dc:title>
          </cc:Agent>
        </dc:rights>
        <dc:date />
        <dc:format>image/svg+xml</dc:format>
        <dc:type
           rdf:resource="http://purl.org/dc/dcmitype/StillImage" />
        <cc:license
           rdf:resource="http://web.resource.org/cc/PublicDomain" />
        <dc:language>en</dc:language>
      </cc:Work>
      <cc:License
         rdf:about="http://web.resource.org/cc/PublicDomain">
        <cc:permits
           rdf:resource="http://web.resource.org/cc/Reproduction" />
        <cc:permits
           rdf:resource="http://web.resource.org/cc/Distribution" />
        <cc:permits
           rdf:resource="http://web.resource.org/cc/DerivativeWorks" />
      </cc:License>
    </rdf:RDF>
  </metadata>
  <defs
     id="defs4" />
  <sodipodi:namedview
     bordercolor="#666666"
     borderopacity="1.0"
     id="base"
     inkscape:current-layer="layer1"
     inkscape:cx="372.04724"
     inkscape:cy="526.18109"
     inkscape:document-units="px"
     inkscape:pageopacity="0.0"
     inkscape:pageshadow="2"
     inkscape:window-height="948"
     inkscape:window-width="1272"
     inkscape:window-x="0"
     inkscape:window-y="22"
     inkscape:zoom="0.75354285"
     pagecolor="#ffffff" />
  <g
     id="layer1"
     inkscape:groupmode="layer"
     inkscape:label="Layer 1"
     transform="translate(-80.482081,-65.234327)">
    <path
       transform="matrix(104.6563,0,0,104.6563,-36414.11,-64667.67)"
       style=""
       d="M 354.22852,625.15545 L 354.43945,625.15545 C 354.43945,625.77264 354.33788,626.22186 354.13477,626.50311 C 353.93554,626.78436 353.68554,626.92498 353.38477,626.92499 C 353.13867,626.92498 352.90234,626.83319 352.67578,626.64959 C 352.44921,626.46209 352.24609,625.96405 352.06641,625.15545 L 351.5625,622.88202 L 349.81641,626.84295 L 348.70898,626.84295 L 351.2168,621.44061 C 351.08398,620.7414 350.92383,620.22382 350.73633,619.88788 C 350.54883,619.55195 350.3164,619.38398 350.03906,619.38397 C 349.8164,619.38398 349.62109,619.46991 349.45312,619.64178 C 349.28906,619.80976 349.19726,620.07148 349.17773,620.42694 L 348.9668,620.42694 C 348.97852,619.85273 349.09375,619.39374 349.3125,619.04999 C 349.53125,618.70234 349.80469,618.52851 350.13281,618.5285 C 350.34375,618.52851 350.54297,618.6164 350.73047,618.79217 C 350.92187,618.96406 351.08593,619.26093 351.22266,619.6828 C 351.36328,620.10077 351.58008,620.96991 351.87305,622.29022 L 352.28906,624.14764 C 352.45703,624.91717 352.63281,625.4328 352.81641,625.69452 C 353.0039,625.95233 353.22656,626.08124 353.48438,626.08124 C 353.92187,626.08124 354.16992,625.77264 354.22852,625.15545"
       id="flowRoot1306" />
  </g>
</svg>
